<?xml version="1.0" encoding="UTF-8"?>
<svg id="Layer_2" xmlns="http://www.w3.org/2000/svg" viewBox="0 0 537.56 399.05">
  <defs>
    <style>
      .cls-1 {
        fill: #020817;
      }

      .cls-2 {
        fill: #fff;
      }

      .cls-3 {
        fill: #4f5563;
      }

      .cls-4 {
        fill: #c8cede;
      }

      .cls-5 {
        fill: #2a354f;
      }

      .cls-6 {
        fill: #384157;
      }
    </style>
  </defs>
  <path class="cls-4" d="M125.86,56.42c6.14-.59,12.29.88,17.58,4.04,17.82,10.65,70.59,34.73,130.59-8.24,0,0,11-7,37-29S359.03.22,359.03.22c0,0,45-7,80,58s9,118.45,9,118.45c0,0-57,95.55-39,121.55s16,33,16,33c0,0,1,31-44,57s-93-3-93-3c0,0-55-58-83-57s-47,16-47,16c0,0-40,32-79-20-29.86-39.81-23.96-75.52-19.56-90.07,1.15-3.79,2.93-7.36,5.2-10.6,9.09-13.01,37.76-57.3,23.36-79.32-17-26-14-37-14-37,0,0,6.89-46.5,51.83-50.8Z"/>
  <path class="cls-3" d="M122.03,254.22s-46,14-55-10c0,0-3-10,5-24,4.92-8.61,6.82-17.6,7.54-23.25.54-4.16-.09-8.38-1.82-12.21-3.2-7.04-11.31-18.58-25.72-20.55-22-3-28-1-28-1,0,0-25,5-24,11,0,0-1,6,15,3s32-2,32-2c0,0,24.59,2.26,21.37,22.67-.09.57-.15,1.14-.17,1.72-.07,2.14-.93,9.17-8.42,22.26-.64,1.11-1.15,2.28-1.52,3.51-1.49,5.04-4.13,18.06,3.73,29.85,10,15,30,15,30,15,0,0,32-1,39-9l-3-8-6,1"/>
  <rect class="cls-1" x="126.26" y="242.52" width="25" height="20.6" rx="8.03" ry="8.03" transform="translate(-80.25 65.19) rotate(-20.65)"/>
  <rect class="cls-5" x="145.08" y="221.7" width="36" height="44.01" rx="10.39" ry="10.39" transform="translate(-75.47 73.18) rotate(-20.65)"/>
  <rect class="cls-3" x="169.6" y="204.17" width="50" height="56.42" rx="8.45" ry="8.45" transform="translate(-69.46 83.57) rotate(-20.65)"/>
  <path class="cls-6" d="M210.55,196.36l18.93,48.68c.94,2.43,1.77,6.88.54,9.18-.98,1.82-4.21,2.95-7,2-2.18-.74-4.2-3.84-5-6l-19-50c-.67-1.81-.06-4.39,1-6,.8-1.22,3-2.11,5.12-1.98,2.44.15,4.52,1.84,5.4,4.12Z"/>
  <rect class="cls-1" x="220.47" y="128.64" width="10" height="59.06" rx="3.48" ry="3.48" transform="translate(-41.35 226.44) rotate(-49.4)"/>
  <rect class="cls-1" x="250.36" y="133.82" width="6.95" height="31.62" rx="3.48" ry="3.48" transform="translate(-29.75 69.62) rotate(-14.76)"/>
  <rect class="cls-1" x="273.21" y="114.34" width="10" height="45.98" rx="3.48" ry="3.48" transform="translate(9.08 -17.05) rotate(3.57)"/>
  <rect class="cls-1" x="308.1" y="239.64" width="10" height="59.06" rx="3.48" ry="3.48" transform="translate(-96.22 214.91) rotate(-33.13)"/>
  <rect class="cls-1" x="279.49" y="256.19" width="6.95" height="31.62" rx="3.48" ry="3.48"/>
  <rect class="cls-1" x="251.71" y="253.8" width="10" height="45.98" rx="3.48" ry="3.48" transform="translate(120.78 -75.4) rotate(21.74)"/>
  <rect class="cls-2" x="285.03" y="177.22" width="35" height="9" rx="4.5" ry="4.5" transform="translate(-44.65 118.38) rotate(-20.65)"/>
  <path class="cls-3" d="M425.03,164.22s42-3,40,18c0,0,1,9-6,23-4.92,9.84-5.89,20.18-6.03,25.45-.07,2.69.41,5.36,1.42,7.86,2.91,7.2,11.25,20.95,32.61,21.69,29,1,45-13,45-13,0,0,13.99-14-2.51-7s-30.49,8-30.49,8c0,0-39.25,4.46-35.18-24.53.41-2.9,1.35-5.69,2.62-8.33,4.58-9.53,17.57-38.14,2.57-51.14,0,0-9-9-24-11s-31,1-31,1l2,12,9-2Z"/>
  <rect class="cls-1" x="390.76" y="153.67" width="31" height="19.59" rx="7.95" ry="7.95" transform="translate(-31.28 145.46) rotate(-19.56)"/>
  <rect class="cls-5" x="367.03" y="145.54" width="32.62" height="50.51" rx="8.8" ry="8.8" transform="translate(-35.06 138.21) rotate(-19.56)"/>
  <rect class="cls-2" x="295.98" y="208.87" width="35" height="9" rx="4.5" ry="4.5" transform="translate(-55.11 124.28) rotate(-20.65)"/>
  <rect class="cls-3" x="316.58" y="156.72" width="54.36" height="57.46" rx="10.84" ry="10.84" transform="translate(-42.25 125.8) rotate(-19.56)"/>
  <rect class="cls-6" x="362.82" y="143.08" width="12" height="67.18" rx="6" ry="6" transform="translate(-38.61 141.44) rotate(-20.65)"/>
</svg>