<?xml version="1.0" encoding="UTF-8"?>
<svg xmlns="http://www.w3.org/2000/svg" xmlns:xlink="http://www.w3.org/1999/xlink" viewBox="0 0 618 438.11">
  <defs>
    <style>
      .cls-1 {
        fill: url(#linear-gradient-2);
      }

      .cls-2 {
        fill: #a7aaaf;
      }

      .cls-3 {
        fill: #eb95f7;
      }

      .cls-4 {
        fill: #fff;
      }

      .cls-5, .cls-6, .cls-7 {
        fill: #020817;
      }

      .cls-8 {
        fill: #facc15;
      }

      .cls-9 {
        letter-spacing: -.02em;
      }

      .cls-10 {
        fill: #68cdf2;
      }

      .cls-6 {
        font-family: Helvetica, Helvetica;
        font-size: 100px;
      }

      .cls-11 {
        fill: #353b47;
      }

      .cls-7 {
        font-family: Helvetica-Bold, Helvetica;
        font-size: 12px;
        font-weight: 700;
      }

      .cls-12 {
        fill: url(#linear-gradient);
      }

      .cls-13 {
        fill: #494f59;
      }

      .cls-14 {
        fill: #dfe5ed;
      }
    </style>
    <linearGradient id="linear-gradient" x1="251.01" y1="53.97" x2="216.44" y2="113.84" gradientUnits="userSpaceOnUse">
      <stop offset="0" stop-color="#f08272"/>
      <stop offset="1" stop-color="#e66561"/>
    </linearGradient>
    <linearGradient id="linear-gradient-2" x1="519.5" y1="104.96" x2="519.5" y2="414.96" gradientUnits="userSpaceOnUse">
      <stop offset="0" stop-color="#a7aaaf"/>
      <stop offset="1" stop-color="#353b47"/>
    </linearGradient>
  </defs>
  <g id="Layer_5">
    <path class="cls-14" d="M35,416.96S0,373.96,10,314.96c8.12-47.94,40.02-72.77,51.69-80.4,6.98-4.56,13.07-10.41,17.6-17.41,8.23-12.74,15.56-33.66,5.88-62.69-10.65-31.94-7.39-60.99-3.37-78.46,2.68-11.66,7.92-22.57,15.46-31.86C109.31,29.27,132.17,7.73,166.7,1.66c22.91-4.03,46.53.57,66.61,12.31,22.55,13.19,63.28,34.54,88.16,32.96,1.7-.11,3.39-.19,5.1-.21,8.3-.13,35.54-2.36,64.25-24.41,6.57-5.05,13.76-9.26,21.38-12.52,23.72-10.16,68.81-20.77,115.07,14.83.93.72,1.88,1.42,2.83,2.11,7.86,5.6,54.22,42.57,35.89,123.24,0,0-27.49,80,4.25,110,20.55,19.42,34.08,44.7,41.07,60.12,4.38,9.66,6.5,20.18,6.18,30.78-.55,18.51-4.85,47.97-24.76,66.11H35Z"/>
  </g>
  <g id="Layer_4">
    <rect class="cls-11" x="226.5" y="187.46" width="3" height="12" rx="1.46" ry="1.46"/>
    <rect class="cls-11" x="226.5" y="167.96" width="3" height="12" rx="1.46" ry="1.46"/>
    <rect class="cls-11" x="226.5" y="148.46" width="3" height="12" rx="1.46" ry="1.46"/>
    <rect class="cls-11" x="226.5" y="128.96" width="3" height="12" rx="1.46" ry="1.46"/>
    <rect class="cls-11" x="226.5" y="108.96" width="3" height="12" rx="1.46" ry="1.46"/>
    <rect class="cls-11" x="257.5" y="62.46" width="3" height="12" rx="1.46" ry="1.46" transform="translate(190.54 327.46) rotate(-90)"/>
    <rect class="cls-11" x="276.5" y="62.46" width="3" height="12" rx="1.46" ry="1.46" transform="translate(209.54 346.46) rotate(-90)"/>
    <rect class="cls-11" x="297.5" y="62.46" width="3" height="12" rx="1.46" ry="1.46" transform="translate(230.54 367.46) rotate(-90)"/>
    <rect class="cls-11" x="316.5" y="62.46" width="3" height="12" rx="1.46" ry="1.46" transform="translate(249.54 386.46) rotate(-90)"/>
    <rect class="cls-11" x="335.5" y="62.46" width="3" height="12" rx="1.46" ry="1.46" transform="translate(268.54 405.46) rotate(-90)"/>
    <rect class="cls-11" x="354.5" y="62.46" width="3" height="12" rx="1.46" ry="1.46" transform="translate(287.54 424.46) rotate(-90)"/>
    <rect class="cls-11" x="375.5" y="62.46" width="3" height="12" rx="1.46" ry="1.46" transform="translate(308.54 445.46) rotate(-90)"/>
    <rect class="cls-11" x="394.5" y="62.46" width="3" height="12" rx="1.46" ry="1.46" transform="translate(327.54 464.46) rotate(-90)"/>
    <rect class="cls-11" x="414.5" y="62.46" width="3" height="12" rx="1.46" ry="1.46" transform="translate(347.54 484.46) rotate(-90)"/>
    <rect class="cls-11" x="433.5" y="62.46" width="3" height="12" rx="1.46" ry="1.46" transform="translate(366.54 503.46) rotate(-90)"/>
    <rect class="cls-11" x="450.5" y="67.96" width="3" height="12" rx="1.46" ry="1.46"/>
    <rect class="cls-11" x="450.5" y="84.96" width="3" height="12" rx="1.46" ry="1.46"/>
    <rect class="cls-8" x="450" y="103.96" width="3" height="12" rx="1.46" ry="1.46"/>
    <path class="cls-12" d="M195.52,100.96h62.82c4.11,0,6.59-4.62,4.36-8.13l-31.41-49.55c-2.04-3.22-6.68-3.22-8.72,0l-31.41,49.55c-2.23,3.51.25,8.13,4.36,8.13Z"/>
    <circle class="cls-4" cx="227.5" cy="89.46" r="2.5"/>
    <path class="cls-4" d="M224.75,60.99c.98-1.05,2.81-2.27,4.7.16.36.47.53,1.06.51,1.65l-.92,19.39c-.04.87-.71,1.62-1.58,1.65-.28.01-.6-.03-.98-.15-.89-.28-1.5-1.11-1.54-2.04l-.89-18.68c-.03-.73.2-1.45.7-1.98Z"/>
    <rect class="cls-11" x="449" y="66.96" width="4" height="3" rx="1.5" ry="1.5"/>
  </g>
  <g id="Layer_2">
    <rect class="cls-2" x="323" y="104.96" width="174" height="310" rx="4.31" ry="4.31"/>
    <rect class="cls-1" x="497" y="104.96" width="45" height="310" rx="3.79" ry="3.79"/>
    <rect class="cls-11" x="338" y="116.46" width="146.5" height="28" rx="2.84" ry="2.84"/>
    <rect class="cls-10" x="343" y="122.96" width="8" height="15" rx="1.45" ry="1.45"/>
    <rect class="cls-10" x="371" y="122.96" width="8" height="15" rx="1.45" ry="1.45"/>
    <rect class="cls-3" x="357" y="122.96" width="8" height="15" rx="1.45" ry="1.45"/>
    <rect class="cls-3" x="384" y="122.96" width="8" height="15" rx="1.45" ry="1.45"/>
    <rect class="cls-2" x="399" y="120.96" width="80" height="19" rx="3.23" ry="3.23"/>
    <rect class="cls-11" x="337.93" y="152.19" width="146.5" height="28" rx="2.84" ry="2.84"/>
    <rect class="cls-10" x="342.93" y="158.69" width="8" height="15" rx="1.45" ry="1.45"/>
    <rect class="cls-10" x="370.93" y="158.69" width="8" height="15" rx="1.45" ry="1.45"/>
    <rect class="cls-3" x="356.93" y="158.69" width="8" height="15" rx="1.45" ry="1.45"/>
    <rect class="cls-3" x="383.93" y="158.69" width="8" height="15" rx="1.45" ry="1.45"/>
    <rect class="cls-2" x="398.93" y="156.69" width="80" height="19" rx="3.23" ry="3.23"/>
    <rect class="cls-11" x="338.12" y="188.15" width="146.5" height="28" rx="2.84" ry="2.84"/>
    <rect class="cls-10" x="343.12" y="194.65" width="8" height="15" rx="1.45" ry="1.45"/>
    <rect class="cls-10" x="371.12" y="194.65" width="8" height="15" rx="1.45" ry="1.45"/>
    <rect class="cls-3" x="357.12" y="194.65" width="8" height="15" rx="1.45" ry="1.45"/>
    <rect class="cls-3" x="384.12" y="194.65" width="8" height="15" rx="1.45" ry="1.45"/>
    <rect class="cls-2" x="399.12" y="192.65" width="80" height="19" rx="3.23" ry="3.23"/>
    <rect class="cls-11" x="337.91" y="224.47" width="146.5" height="28" rx="2.84" ry="2.84"/>
    <rect class="cls-10" x="342.91" y="230.97" width="8" height="15" rx="1.45" ry="1.45"/>
    <rect class="cls-10" x="370.91" y="230.97" width="8" height="15" rx="1.45" ry="1.45"/>
    <rect class="cls-3" x="356.91" y="230.97" width="8" height="15" rx="1.45" ry="1.45"/>
    <rect class="cls-3" x="383.91" y="230.97" width="8" height="15" rx="1.45" ry="1.45"/>
    <rect class="cls-2" x="398.91" y="228.97" width="80" height="19" rx="3.23" ry="3.23"/>
    <rect class="cls-11" x="337.57" y="260.43" width="146.5" height="28" rx="2.84" ry="2.84"/>
    <rect class="cls-10" x="342.57" y="266.93" width="8" height="15" rx="1.45" ry="1.45"/>
    <rect class="cls-10" x="370.57" y="266.93" width="8" height="15" rx="1.45" ry="1.45"/>
    <rect class="cls-3" x="356.57" y="266.93" width="8" height="15" rx="1.45" ry="1.45"/>
    <rect class="cls-3" x="383.57" y="266.93" width="8" height="15" rx="1.45" ry="1.45"/>
    <rect class="cls-2" x="398.57" y="264.93" width="80" height="19" rx="3.23" ry="3.23"/>
    <rect class="cls-11" x="337.84" y="295.97" width="146.5" height="28" rx="2.84" ry="2.84"/>
    <rect class="cls-10" x="342.84" y="302.47" width="8" height="15" rx="1.45" ry="1.45"/>
    <rect class="cls-10" x="370.84" y="302.47" width="8" height="15" rx="1.45" ry="1.45"/>
    <rect class="cls-3" x="356.84" y="302.47" width="8" height="15" rx="1.45" ry="1.45"/>
    <rect class="cls-3" x="383.84" y="302.47" width="8" height="15" rx="1.45" ry="1.45"/>
    <rect class="cls-2" x="398.84" y="300.47" width="80" height="19" rx="3.23" ry="3.23"/>
    <rect class="cls-11" x="337.62" y="332.29" width="146.5" height="28" rx="2.84" ry="2.84"/>
    <rect class="cls-10" x="342.62" y="338.79" width="8" height="15" rx="1.45" ry="1.45"/>
    <rect class="cls-10" x="370.62" y="338.79" width="8" height="15" rx="1.45" ry="1.45"/>
    <rect class="cls-3" x="356.62" y="338.79" width="8" height="15" rx="1.45" ry="1.45"/>
    <rect class="cls-3" x="383.62" y="338.79" width="8" height="15" rx="1.45" ry="1.45"/>
    <rect class="cls-2" x="398.62" y="336.79" width="80" height="19" rx="3.23" ry="3.23"/>
    <rect class="cls-11" x="337.28" y="368.25" width="146.5" height="28" rx="2.84" ry="2.84"/>
    <rect class="cls-10" x="342.28" y="374.75" width="8" height="15" rx="1.45" ry="1.45"/>
    <rect class="cls-10" x="370.28" y="374.75" width="8" height="15" rx="1.45" ry="1.45"/>
    <rect class="cls-3" x="356.28" y="374.75" width="8" height="15" rx="1.45" ry="1.45"/>
    <rect class="cls-3" x="383.28" y="374.75" width="8" height="15" rx="1.45" ry="1.45"/>
    <rect class="cls-2" x="398.28" y="372.75" width="80" height="19" rx="3.23" ry="3.23"/>
  </g>
  <g id="Layer_3">
    <path class="cls-11" d="M69.95,205.96h318.11c1.07,0,1.95.87,1.95,1.95v189.05H68v-189.05c0-1.07.87-1.95,1.95-1.95Z"/>
    <rect class="cls-2" x="72" y="209.96" width="314" height="176" rx="3.81" ry="3.81"/>
    <path class="cls-5" d="M54,396.96h351c0,9.93-8.07,18-18,18H72c-9.93,0-18-8.07-18-18h0Z"/>
    <rect class="cls-13" y="414.96" width="618" height="7" rx="3.5" ry="3.5"/>
  </g>
  <g id="Layer_6">
    <text class="cls-6" transform="translate(148.15 318.78) scale(1 .9)"><tspan x="0" y="0">500</tspan></text>
    <text class="cls-7" transform="translate(149.89 340.01) scale(1 .9)"><tspan x="0" y="0">INTERNA</tspan><tspan class="cls-9" x="53.33" y="0">L</tspan><tspan x="60.45" y="0" xml:space="preserve"> SE</tspan><tspan class="cls-9" x="79.79" y="0">R</tspan><tspan x="88.25" y="0">VER ERROR</tspan></text>
  </g>
</svg>