<?xml version="1.0" encoding="UTF-8"?>
<svg xmlns="http://www.w3.org/2000/svg" viewBox="0 0 294.77 300.16">
  <defs>
    <style>
      .cls-1 {
        fill: #ffc9a1;
        stroke-width: 4px;
      }

      .cls-1, .cls-2, .cls-3 {
        stroke: #000;
        stroke-miterlimit: 10;
      }

      .cls-4 {
        fill: #facc15;
      }

      .cls-5 {
        fill: #fff;
      }

      .cls-2 {
        fill: #ffe88f;
      }

      .cls-2, .cls-3 {
        stroke-width: 5px;
      }

      .cls-6 {
        fill: #f8b58e;
      }

      .cls-3 {
        fill: none;
      }
    </style>
  </defs>
  <g id="Layer_9">
    <path class="cls-1" d="M105.79,92.1c6.29,12.82,38.34,72.89,97.5,97.61,1.31.55,2.83-.04,3.46-1.32L290.63,17.66s9-19-10-15L107.02,88.48c-1.34.66-1.89,2.27-1.24,3.61Z"/>
    <polygon class="cls-6" points="209.13 134.16 191.13 144.16 180.13 164.16 199.13 153.16 209.13 134.16"/>
    <polygon class="cls-6" points="197.63 119.06 179.63 129.06 168.63 149.06 187.63 138.06 197.63 119.06"/>
    <polygon class="cls-6" points="185.63 106.06 167.63 116.06 156.63 136.06 175.63 125.06 185.63 106.06"/>
    <polygon class="cls-6" points="171.63 95.06 153.63 105.06 142.63 125.06 161.63 114.06 171.63 95.06"/>
    <polygon class="cls-6" points="157.63 83.06 139.63 93.06 128.63 113.06 147.63 102.06 157.63 83.06"/>
    <polygon class="cls-6" points="147.63 67.87 129.63 77.87 118.63 97.87 137.63 86.87 147.63 67.87"/>
    <polygon class="cls-6" points="174.94 52.76 156.94 62.76 145.94 82.76 164.94 71.76 174.94 52.76"/>
    <polygon class="cls-6" points="188.22 66.19 170.22 76.19 159.22 96.19 178.22 85.19 188.22 66.19"/>
    <polygon class="cls-6" points="201.22 78.19 183.22 88.19 172.22 108.19 191.22 97.19 201.22 78.19"/>
    <polygon class="cls-6" points="214.22 91.19 196.22 101.19 185.22 121.19 204.22 110.19 214.22 91.19"/>
    <polygon class="cls-6" points="226.99 103.23 208.99 113.23 197.99 133.23 216.99 122.23 226.99 103.23"/>
    <polygon class="cls-6" points="222.99 147.23 204.99 157.23 193.99 177.23 212.99 166.23 222.99 147.23"/>
    <polygon class="cls-6" points="236.99 119.23 218.99 129.23 207.99 149.23 226.99 138.23 236.99 119.23"/>
    <polygon class="cls-6" points="251.99 90.23 233.99 100.23 222.99 120.23 241.99 109.23 251.99 90.23"/>
    <polygon class="cls-6" points="243.69 74.59 225.69 84.59 214.69 104.59 233.69 93.59 243.69 74.59"/>
    <polygon class="cls-6" points="228.69 63.59 210.69 73.59 199.69 93.59 218.69 82.59 228.69 63.59"/>
    <polygon class="cls-6" points="217.69 49.59 199.69 59.59 188.69 79.59 207.69 68.59 217.69 49.59"/>
    <polygon class="cls-6" points="202.69 39.59 184.69 49.59 173.69 69.59 192.69 58.59 202.69 39.59"/>
    <polygon class="cls-6" points="230.69 24.59 212.69 34.59 201.69 54.59 220.69 43.59 230.69 24.59"/>
    <polygon class="cls-6" points="245.69 34.59 227.69 44.59 216.69 64.59 235.69 53.59 245.69 34.59"/>
    <polygon class="cls-6" points="260.01 45.81 242.01 55.81 231.01 75.81 250.01 64.81 260.01 45.81"/>
    <polygon class="cls-6" points="269.01 61.81 251.01 71.81 240.01 91.81 259.01 80.81 269.01 61.81"/>
    <polygon class="cls-6" points="284.01 33.81 266.01 43.81 255.01 63.81 274.01 52.81 284.01 33.81"/>
    <polygon class="cls-6" points="273.01 19.81 255.01 29.81 244.01 49.81 263.01 38.81 273.01 19.81"/>
    <polygon class="cls-6" points="258.13 14.16 246.13 20.16 232.01 36.81 251.01 25.81 258.13 14.16"/>
    <polygon class="cls-6" points="284.13 2.16 265.13 10.16 260.37 20.15 279.37 9.15 284.13 2.16"/>
    <polygon class="cls-6" points="292.13 10.16 286.37 11.15 275.37 31.15 290.13 19.16 292.13 10.16"/>
    <polygon class="cls-6" points="121.67 79.57 103.67 89.57 107.13 95.16 111.67 98.57 121.67 79.57"/>
    <polygon class="cls-6" points="131.67 94.57 113.67 104.57 102.67 124.57 121.67 113.57 131.67 94.57"/>
    <polygon class="cls-6" points="143.67 110.57 125.67 120.57 114.67 140.57 133.67 129.57 143.67 110.57"/>
    <polygon class="cls-6" points="157.67 120.57 139.67 130.57 128.67 150.57 147.67 139.57 157.67 120.57"/>
    <polygon class="cls-6" points="170.67 133.57 152.67 143.57 141.67 163.57 160.67 152.57 170.67 133.57"/>
    <polygon class="cls-6" points="180.73 147.25 162.73 157.25 151.73 177.25 170.73 166.25 180.73 147.25"/>
    <polygon class="cls-6" points="193.73 164.25 175.73 174.25 164.73 194.25 183.73 183.25 193.73 164.25"/>
    <polygon class="cls-6" points="212.73 173.25 194.73 183.25 183.73 203.25 202.73 192.25 212.73 173.25"/>
    <path class="cls-3" d="M105.3,92.49c6.29,12.82,38.34,72.89,97.5,97.61,1.31.55,2.83-.04,3.46-1.32L290.14,18.05s9-19-10-15L111.58,86.38l-5.05,2.49c-1.34.66-1.89,2.27-1.24,3.61Z"/>
    <path class="cls-2" d="M106.02,94.55s-47.89,17.62-46.89,67.62c0,0,1,19,4,32,0,0,1,13-12,13h-18.37c-.97,0-1.93.14-2.84.46-2.32.8-6.28,2.8-6.28,7.04s3.71,6.62,5.73,7.52c.72.32,1.49.48,2.27.48h29.02c1.31,0,2.62.25,3.82.78,2.65,1.17,6.5,3.83,5.15,9.22-2,8-4.81,7.83-4.81,7.83l-54.82,1.1c-3.3.07-6.25,2.23-7.13,5.41-.36,1.3-.5,2.84-.24,4.66.57,4.01,2.45,6.37,3.96,7.67,1.01.87,2.29,1.33,3.62,1.33h61.88c.69,0,1.38.12,2.02.38,1.74.72,4.8,2.67,5.51,7.62,1,7-6,9-8,9h-24.15c-1.38,0-2.75.35-3.94,1.07-2.23,1.36-5.23,4-3.92,7.93.82,2.47,1.82,4.1,2.7,5.15,1,1.19,2.48,1.85,4.04,1.85h93.59c1.48,0,2.93-.44,4.13-1.31,1.65-1.2,3.54-3.31,3.54-6.69,0-2.11-.62-3.72-1.41-4.92-1.31-1.97-3.59-3.08-5.96-3.09l-4.7-.03c-1.66-.01-3.27-.57-4.56-1.62-2.09-1.69-4.6-4.62-3.36-8.34,1.34-4.03,4.5-5.81,6.42-6.54.81-.31,1.66-.46,2.52-.48l64.07-.93c3.07-.04,5.95-1.61,7.57-4.23,1.06-1.71,1.83-3.77,1.42-5.83-.6-3.02-3.03-5.67-4.86-7.3-1.24-1.11-2.86-1.7-4.53-1.7h-5.73c-5.26,0-9.47-4.53-8.91-9.76,0-.08.02-.16.03-.24.9-7.24,10-7.11,11.72-7.02.23.01.46.01.7,0l24.39-.94c.93-.04,1.84-.24,2.68-.63,2.05-.96,5.51-3.2,5.51-7.42,0-4.59-4.1-6.25-6.02-6.78-.54-.15-1.09-.22-1.65-.22h-12.84c-1.77,0-3.55-.47-4.99-1.5-1.75-1.25-3.5-3.5-3.5-7.5,0-8-1.06-8.75-1.06-8.75,0,0-68.55-34.37-94.55-95.37Z"/>
  </g>
  <g id="Layer_4">
    <path class="cls-4" d="M62.13,182.16s26.5,61.5,85.5,48.5c0,0,32-2,54-41l.9,5.23,1.06,8.29,2.99,3.28,9.71,1.2,9.3.21,5.17,3.51.87,4.6-2.18,3.81-3.97,2.57-9.7.65-8.35.32-10.37.3-6.31,1.36-3.12,3.67-1,7,3,3,5,3,5-1,6,2,3,3,2,6-1,3-4,4-8,2h-59.97s-5.19,1.84-5.19,1.84l-3.83,5.16.95,5.79,4.13,3.76,6.67.43,4.66.84,3.11,4.15.15,5.38-2.66,3.92-2.95,1.73h-14.21s-2.83-5-8.83-11c0,0-13-8-4-27,0,0,5-6-5-9,0,0-38-13-47-50l-1.5-14.5Z"/>
    <path class="cls-3" d="M107.49,94.95s-47.89,17.62-46.89,67.62c0,0,1,19,4,32,0,0,1,13-12,13h-18.37c-.97,0-1.93.14-2.84.46-2.32.8-6.28,2.8-6.28,7.04s3.71,6.62,5.73,7.52c.72.32,1.49.48,2.27.48h29.02c1.31,0,2.62.25,3.82.78,2.65,1.17,6.5,3.83,5.15,9.22-2,8-4.81,7.83-4.81,7.83l-54.82,1.1c-3.3.07-6.25,2.23-7.13,5.41-.36,1.3-.5,2.84-.24,4.66.57,4.01,2.45,6.37,3.96,7.67,1.01.87,2.29,1.33,3.62,1.33h61.88c.69,0,1.38.12,2.02.38,1.74.72,4.8,2.67,5.51,7.62,1,7-6,9-8,9h-24.15c-1.38,0-2.75.35-3.94,1.07-2.23,1.36-5.23,4-3.92,7.93.82,2.47,1.82,4.1,2.7,5.15,1,1.19,2.48,1.85,4.04,1.85h93.59c1.48,0,2.93-.44,4.13-1.31,1.65-1.2,3.54-3.31,3.54-6.69,0-2.11-.62-3.72-1.41-4.92-1.31-1.97-3.59-3.08-5.96-3.09l-4.7-.03c-1.66-.01-3.27-.57-4.56-1.62-2.09-1.69-4.6-4.62-3.36-8.34,1.34-4.03,4.5-5.81,6.42-6.54.81-.31,1.66-.46,2.52-.48l64.07-.93c3.07-.04,5.95-1.61,7.57-4.23,1.06-1.71,1.83-3.77,1.42-5.83-.6-3.02-3.03-5.67-4.86-7.3-1.24-1.11-2.86-1.7-4.53-1.7h-5.73c-5.26,0-9.47-4.53-8.91-9.76,0-.08.02-.16.03-.24.9-7.24,10-7.11,11.72-7.02.23.01.46.01.7,0l24.39-.94c.93-.04,1.84-.24,2.68-.63,2.05-.96,5.51-3.2,5.51-7.42,0-4.59-4.1-6.25-6.02-6.78-.54-.15-1.09-.22-1.65-.22h-12.84c-1.77,0-3.55-.47-4.99-1.5-1.75-1.25-3.5-3.5-3.5-7.5,0-8-1.06-8.75-1.06-8.75,0,0-68.55-34.37-94.55-95.37Z"/>
  </g>
  <g id="Layer_5">
    <rect class="cls-2" x="164.63" y="276.66" width="50" height="21" rx="10.5" ry="10.5"/>
    <path class="cls-4" d="M195.13,277.16s10,11.18-4,19l14,1,5-3,2-2,1-3v-5.16l-3-4.84-3-1-3-.62-9-.38Z"/>
    <rect class="cls-3" x="164.63" y="276.66" width="50" height="21" rx="10.5" ry="10.5"/>
  </g>
  <g id="Layer_7">
    <path class="cls-4" d="M97.68,178.03c-.07-1.13.14-2.27.7-3.25.5-.88,1.25-1.62,2.25-1.12,2,1,1.98,3,1.98,3,0,0,.02,16,5.02,15s5-4,5-4c0,0,.65-14.32,6.32-14.16,2.07.06,3.52.36,4.53.72,1.24.45,2.16,1.49,2.48,2.77,1.02,4.01,4.19,15.66,6.67,15.66,3,0,7-6,7-6,0,0,4-8,12-4,0,0,6,1,3,15-1.66,7.75,1.89,10.9,5.38,12.17s7.47-.73,8.59-4.39c.59-1.92,1.03-4.47,1.03-7.78,0,0,0-3,2-2s1,9,1,9c0,0,0,13-14,9-12.01-3.43-10.04-17.16-9.23-21,.2-.95.07-1.96-.46-2.76-.61-.92-1.65-1.44-3.3.76-3,4-5,13-13,10s-9-13-9-13c0,0-2.57-11.14-4.54-4.86-.31.98-.39,2.01-.24,3.02.45,3.01.85,10.84-7.22,10.84-10,0-12-9-12-9,0,0-1.66-4.97-1.95-9.63Z"/>
  </g>
  <g id="Layer_8">
    <rect class="cls-5" x="178.13" y="247.16" width="26" height="7" rx="3.5" ry="3.5"/>
    <circle class="cls-5" cx="172.63" cy="250.66" r="3.5"/>
    <rect class="cls-5" x="54.13" y="283.16" width="26" height="7" rx="3.5" ry="3.5"/>
    <circle class="cls-5" cx="48.63" cy="286.66" r="3.5"/>
    <path class="cls-5" d="M76.13,134.16s2.84-2,4.42,0-.42,4-.42,4c0,0-8,8-7,20,0,0,0,3-2,3s-3,0-3-2-2-11,8-25Z"/>
    <circle class="cls-5" cx="71.13" cy="166.16" r="3"/>
  </g>
</svg>